<svg width="290" height="42" viewBox="0 0 290 42" fill="none" xmlns="http://www.w3.org/2000/svg">
<path d="M0.545254 33V1.275H6.35025L17.0603 20.76L27.7253 1.275H33.4403V33H27.0953V13.65L18.9053 28.23H14.9903L6.84525 13.785V33H0.545254ZM40.9992 41.1L45.2292 31.785L36.1392 10.905H43.2942L48.8292 24.945L54.5442 10.905H61.2942L47.9292 41.1H40.9992ZM76.3928 33V1.275H90.9278C94.3178 1.275 96.9278 2.01 98.7578 3.48C100.618 4.95 101.548 6.96 101.548 9.51C101.548 11.19 101.128 12.645 100.288 13.875C99.4478 15.075 98.2778 15.975 96.7778 16.575C98.5778 17.085 99.9578 17.985 100.918 19.275C101.908 20.565 102.403 22.155 102.403 24.045C102.403 26.865 101.413 29.07 99.4328 30.66C97.4828 32.22 94.8128 33 91.4228 33H76.3928ZM83.0528 14.325H89.7128C93.1328 14.325 94.8428 13.005 94.8428 10.365C94.8428 7.755 93.1328 6.45 89.7128 6.45H83.0528V14.325ZM83.0528 27.825H90.4778C92.2778 27.825 93.5978 27.48 94.4378 26.79C95.2778 26.1 95.6978 25.05 95.6978 23.64C95.6978 22.26 95.2778 21.225 94.4378 20.535C93.5978 19.845 92.2778 19.5 90.4778 19.5H83.0528V27.825ZM118.572 33.495C115.962 33.495 113.712 33.03 111.822 32.1C109.962 31.14 108.522 29.805 107.502 28.095C106.512 26.355 106.017 24.315 106.017 21.975C106.017 19.695 106.497 17.7 107.457 15.99C108.447 14.25 109.782 12.9 111.462 11.94C113.172 10.95 115.137 10.455 117.357 10.455C120.567 10.455 123.117 11.475 125.007 13.515C126.897 15.525 127.842 18.255 127.842 21.705V23.415H112.497C112.737 25.155 113.367 26.43 114.387 27.24C115.437 28.02 116.877 28.41 118.707 28.41C119.907 28.41 121.122 28.23 122.352 27.87C123.582 27.51 124.692 26.955 125.682 26.205L127.482 30.75C126.372 31.59 125.007 32.265 123.387 32.775C121.797 33.255 120.192 33.495 118.572 33.495ZM117.627 14.955C116.187 14.955 115.017 15.39 114.117 16.26C113.247 17.13 112.707 18.345 112.497 19.905H122.217C122.037 16.605 120.507 14.955 117.627 14.955ZM140.254 33.495C138.304 33.495 136.489 33.27 134.809 32.82C133.129 32.37 131.734 31.755 130.624 30.975L132.244 26.565C133.354 27.255 134.614 27.81 136.024 28.23C137.464 28.62 138.889 28.815 140.299 28.815C141.559 28.815 142.489 28.62 143.089 28.23C143.689 27.81 143.989 27.27 143.989 26.61C143.989 25.56 143.224 24.9 141.694 24.63L136.969 23.775C135.079 23.445 133.639 22.77 132.649 21.75C131.659 20.73 131.164 19.395 131.164 17.745C131.164 16.245 131.584 14.955 132.424 13.875C133.264 12.795 134.419 11.955 135.889 11.355C137.359 10.755 139.054 10.455 140.974 10.455C142.564 10.455 144.109 10.665 145.609 11.085C147.109 11.475 148.399 12.105 149.479 12.975L147.769 17.34C146.869 16.68 145.789 16.14 144.529 15.72C143.299 15.3 142.144 15.09 141.064 15.09C139.714 15.09 138.739 15.315 138.139 15.765C137.539 16.185 137.239 16.725 137.239 17.385C137.239 18.435 137.944 19.095 139.354 19.365L144.079 20.22C146.029 20.55 147.514 21.21 148.534 22.2C149.554 23.16 150.064 24.48 150.064 26.16C150.064 28.47 149.164 30.27 147.364 31.56C145.564 32.85 143.194 33.495 140.254 33.495ZM164.568 33.495C158.358 33.495 155.253 30.48 155.253 24.45V15.99H151.068V10.905H155.253V4.425H162.048V10.905H168.573V15.99H162.048V24.18C162.048 25.44 162.333 26.385 162.903 27.015C163.503 27.645 164.448 27.96 165.738 27.96C166.128 27.96 166.533 27.915 166.953 27.825C167.403 27.735 167.883 27.615 168.393 27.465L169.383 32.415C168.753 32.745 168.003 33 167.133 33.18C166.263 33.39 165.408 33.495 164.568 33.495ZM196.366 33.495C193.876 33.495 191.521 33.18 189.301 32.55C187.111 31.92 185.281 31.065 183.811 29.985L185.836 24.495C187.246 25.485 188.851 26.265 190.651 26.835C192.481 27.405 194.386 27.69 196.366 27.69C198.526 27.69 200.071 27.36 201.001 26.7C201.961 26.01 202.441 25.155 202.441 24.135C202.441 23.265 202.111 22.575 201.451 22.065C200.791 21.555 199.636 21.12 197.986 20.76L192.901 19.68C187.231 18.48 184.396 15.54 184.396 10.86C184.396 8.85 184.936 7.095 186.016 5.595C187.096 4.065 188.596 2.88 190.516 2.04C192.466 1.2 194.716 0.779999 197.266 0.779999C199.456 0.779999 201.511 1.095 203.431 1.725C205.351 2.355 206.941 3.24 208.201 4.38L206.176 9.51C203.716 7.56 200.731 6.585 197.221 6.585C195.331 6.585 193.861 6.96 192.811 7.71C191.791 8.43 191.281 9.375 191.281 10.545C191.281 11.415 191.596 12.12 192.226 12.66C192.856 13.2 193.951 13.635 195.511 13.965L200.596 15.045C206.416 16.305 209.326 19.155 209.326 23.595C209.326 25.575 208.786 27.315 207.706 28.815C206.656 30.285 205.156 31.44 203.206 32.28C201.286 33.09 199.006 33.495 196.366 33.495ZM213.269 33V1.275H220.064V13.92C220.844 12.78 221.849 11.925 223.079 11.355C224.309 10.755 225.674 10.455 227.174 10.455C232.364 10.455 234.959 13.545 234.959 19.725V33H228.164V20.04C228.164 18.51 227.879 17.415 227.309 16.755C226.739 16.065 225.899 15.72 224.789 15.72C223.349 15.72 222.194 16.17 221.324 17.07C220.484 17.97 220.064 19.17 220.064 20.67V33H213.269ZM250.651 33.495C248.281 33.495 246.211 33.03 244.441 32.1C242.701 31.14 241.351 29.805 240.391 28.095C239.431 26.355 238.951 24.3 238.951 21.93C238.951 19.59 239.431 17.565 240.391 15.855C241.351 14.115 242.701 12.78 244.441 11.85C246.211 10.92 248.281 10.455 250.651 10.455C253.021 10.455 255.076 10.92 256.816 11.85C258.586 12.78 259.951 14.115 260.911 15.855C261.901 17.565 262.396 19.59 262.396 21.93C262.396 24.3 261.901 26.355 260.911 28.095C259.951 29.805 258.586 31.14 256.816 32.1C255.076 33.03 253.021 33.495 250.651 33.495ZM250.651 28.41C252.091 28.41 253.261 27.885 254.161 26.835C255.091 25.785 255.556 24.15 255.556 21.93C255.556 19.74 255.091 18.135 254.161 17.115C253.261 16.065 252.091 15.54 250.651 15.54C249.211 15.54 248.041 16.065 247.141 17.115C246.241 18.135 245.791 19.74 245.791 21.93C245.791 24.15 246.241 25.785 247.141 26.835C248.041 27.885 249.211 28.41 250.651 28.41ZM266.53 41.1V10.905H273.19V14.19C273.79 13.05 274.705 12.15 275.935 11.49C277.195 10.8 278.605 10.455 280.165 10.455C282.085 10.455 283.765 10.92 285.205 11.85C286.675 12.78 287.815 14.1 288.625 15.81C289.435 17.52 289.84 19.56 289.84 21.93C289.84 24.3 289.435 26.355 288.625 28.095C287.815 29.805 286.675 31.14 285.205 32.1C283.765 33.03 282.085 33.495 280.165 33.495C278.695 33.495 277.345 33.18 276.115 32.55C274.915 31.92 273.985 31.08 273.325 30.03V41.1H266.53ZM278.14 28.41C279.58 28.41 280.75 27.885 281.65 26.835C282.55 25.785 283 24.15 283 21.93C283 19.74 282.55 18.135 281.65 17.115C280.75 16.065 279.58 15.54 278.14 15.54C276.67 15.54 275.485 16.065 274.585 17.115C273.685 18.135 273.235 19.74 273.235 21.93C273.235 24.15 273.685 25.785 274.585 26.835C275.485 27.885 276.67 28.41 278.14 28.41Z" fill="black"/>
</svg>
