<svg width="240" height="34" viewBox="0 0 240 34" fill="none" xmlns="http://www.w3.org/2000/svg">
<g opacity="0.8">
<path d="M20 17C20 7.61116 27.6112 0 37 0H203C212.389 0 220 7.61116 220 17V34H37C27.6112 34 20 26.3888 20 17V17Z" fill="#E0E0E0"/>
<path d="M40.082 18.01V22H38.731V18.01L35.056 11.969H36.246C36.3673 11.969 36.463 11.9993 36.533 12.06C36.603 12.1207 36.6637 12.1953 36.715 12.284L39.011 16.183C39.1043 16.3463 39.1813 16.5003 39.242 16.645C39.3073 16.7897 39.3657 16.932 39.417 17.072C39.4683 16.9273 39.5243 16.7827 39.585 16.638C39.6457 16.4933 39.7227 16.3417 39.816 16.183L42.105 12.284C42.147 12.2093 42.203 12.1393 42.273 12.074C42.3477 12.004 42.4433 11.969 42.56 11.969H43.764L40.082 18.01ZM46.5756 14.797C47.0936 14.797 47.5603 14.8833 47.9756 15.056C48.3956 15.2287 48.7503 15.4737 49.0396 15.791C49.3336 16.1083 49.5576 16.4933 49.7116 16.946C49.8703 17.394 49.9496 17.8957 49.9496 18.451C49.9496 19.011 49.8703 19.515 49.7116 19.963C49.5576 20.411 49.3336 20.7937 49.0396 21.111C48.7503 21.4283 48.3956 21.6733 47.9756 21.846C47.5603 22.014 47.0936 22.098 46.5756 22.098C46.0576 22.098 45.5886 22.014 45.1686 21.846C44.7533 21.6733 44.3986 21.4283 44.1046 21.111C43.8106 20.7937 43.5843 20.411 43.4256 19.963C43.2669 19.515 43.1876 19.011 43.1876 18.451C43.1876 17.8957 43.2669 17.394 43.4256 16.946C43.5843 16.4933 43.8106 16.1083 44.1046 15.791C44.3986 15.4737 44.7533 15.2287 45.1686 15.056C45.5886 14.8833 46.0576 14.797 46.5756 14.797ZM46.5756 21.125C47.2756 21.125 47.7983 20.8917 48.1436 20.425C48.4889 19.9537 48.6616 19.298 48.6616 18.458C48.6616 17.6133 48.4889 16.9553 48.1436 16.484C47.7983 16.0127 47.2756 15.777 46.5756 15.777C46.2209 15.777 45.9129 15.8377 45.6516 15.959C45.3903 16.0803 45.1709 16.2553 44.9936 16.484C44.8209 16.7127 44.6903 16.995 44.6016 17.331C44.5176 17.6623 44.4756 18.038 44.4756 18.458C44.4756 18.878 44.5176 19.2537 44.6016 19.585C44.6903 19.9163 44.8209 20.1963 44.9936 20.425C45.1709 20.649 45.3903 20.8217 45.6516 20.943C45.9129 21.0643 46.2209 21.125 46.5756 21.125ZM52.5629 14.909V19.431C52.5629 19.9677 52.6866 20.383 52.9339 20.677C53.1812 20.971 53.5546 21.118 54.0539 21.118C54.4179 21.118 54.7609 21.0317 55.0829 20.859C55.4049 20.6863 55.7012 20.446 55.9719 20.138V14.909H57.2179V22H56.4759C56.2986 22 56.1866 21.9137 56.1399 21.741L56.0419 20.978C55.7339 21.3187 55.3886 21.594 55.0059 21.804C54.6232 22.0093 54.1846 22.112 53.6899 22.112C53.3026 22.112 52.9596 22.049 52.6609 21.923C52.3669 21.7923 52.1196 21.6103 51.9189 21.377C51.7182 21.1437 51.5666 20.8613 51.4639 20.53C51.3659 20.1987 51.3169 19.8323 51.3169 19.431V14.909H52.5629ZM66.8082 16.169C66.7709 16.2203 66.7336 16.26 66.6962 16.288C66.6589 16.316 66.6052 16.33 66.5352 16.33C66.4652 16.33 66.3882 16.302 66.3042 16.246C66.2249 16.1853 66.1222 16.12 65.9962 16.05C65.8702 15.98 65.7162 15.917 65.5342 15.861C65.3569 15.8003 65.1376 15.77 64.8762 15.77C64.5309 15.77 64.2252 15.833 63.9592 15.959C63.6932 16.0803 63.4692 16.2577 63.2872 16.491C63.1099 16.7243 62.9746 17.0067 62.8812 17.338C62.7926 17.6693 62.7482 18.0403 62.7482 18.451C62.7482 18.8803 62.7972 19.263 62.8952 19.599C62.9932 19.9303 63.1309 20.2103 63.3082 20.439C63.4856 20.663 63.7002 20.8357 63.9522 20.957C64.2089 21.0737 64.4959 21.132 64.8132 21.132C65.1166 21.132 65.3662 21.097 65.5622 21.027C65.7582 20.9523 65.9216 20.8707 66.0522 20.782C66.1829 20.6933 66.2902 20.614 66.3742 20.544C66.4582 20.4693 66.5422 20.432 66.6262 20.432C66.7336 20.432 66.8129 20.4717 66.8642 20.551L67.2142 21.006C66.9062 21.384 66.5212 21.6617 66.0592 21.839C65.5972 22.0117 65.1096 22.098 64.5962 22.098C64.1529 22.098 63.7399 22.0163 63.3572 21.853C62.9792 21.6897 62.6502 21.454 62.3702 21.146C62.0902 20.8333 61.8686 20.4507 61.7052 19.998C61.5466 19.5453 61.4672 19.0297 61.4672 18.451C61.4672 17.9237 61.5396 17.436 61.6842 16.988C61.8336 16.54 62.0482 16.155 62.3282 15.833C62.6129 15.5063 62.9629 15.252 63.3782 15.07C63.7936 14.888 64.2696 14.797 64.8062 14.797C65.3009 14.797 65.7396 14.8787 66.1222 15.042C66.5049 15.2007 66.8432 15.427 67.1372 15.721L66.8082 16.169ZM73.7144 22H73.1614C73.04 22 72.942 21.9813 72.8674 21.944C72.7927 21.9067 72.7437 21.8273 72.7204 21.706L72.5804 21.048C72.3937 21.216 72.2117 21.3677 72.0344 21.503C71.857 21.6337 71.6704 21.7457 71.4744 21.839C71.2784 21.9277 71.0684 21.9953 70.8444 22.042C70.625 22.0887 70.38 22.112 70.1094 22.112C69.834 22.112 69.575 22.0747 69.3324 22C69.0944 21.9207 68.8867 21.804 68.7094 21.65C68.532 21.496 68.3897 21.3023 68.2824 21.069C68.1797 20.831 68.1284 20.551 68.1284 20.229C68.1284 19.949 68.2054 19.6807 68.3594 19.424C68.5134 19.1627 68.7607 18.9317 69.1014 18.731C69.4467 18.5303 69.897 18.367 70.4524 18.241C71.0077 18.1103 71.6867 18.0357 72.4894 18.017V17.464C72.4894 16.9133 72.3704 16.498 72.1324 16.218C71.899 15.9333 71.5514 15.791 71.0894 15.791C70.786 15.791 70.5294 15.8307 70.3194 15.91C70.114 15.9847 69.9344 16.071 69.7804 16.169C69.631 16.2623 69.5004 16.3487 69.3884 16.428C69.281 16.5027 69.1737 16.54 69.0664 16.54C68.9824 16.54 68.9077 16.519 68.8424 16.477C68.7817 16.4303 68.7327 16.3743 68.6954 16.309L68.4714 15.91C68.8634 15.532 69.2857 15.2497 69.7384 15.063C70.191 14.8763 70.6927 14.783 71.2434 14.783C71.64 14.783 71.9924 14.8483 72.3004 14.979C72.6084 15.1097 72.8674 15.2917 73.0774 15.525C73.2874 15.7583 73.446 16.0407 73.5534 16.372C73.6607 16.7033 73.7144 17.0673 73.7144 17.464V22ZM70.4804 21.237C70.6997 21.237 70.9004 21.216 71.0824 21.174C71.2644 21.1273 71.4347 21.0643 71.5934 20.985C71.7567 20.901 71.9107 20.8007 72.0554 20.684C72.2047 20.5673 72.3494 20.4343 72.4894 20.285V18.808C71.9154 18.8267 71.4277 18.8733 71.0264 18.948C70.625 19.018 70.2984 19.1113 70.0464 19.228C69.7944 19.3447 69.61 19.4823 69.4934 19.641C69.3814 19.7997 69.3254 19.977 69.3254 20.173C69.3254 20.3597 69.3557 20.5207 69.4164 20.656C69.477 20.7913 69.5587 20.9033 69.6614 20.992C69.764 21.076 69.8854 21.139 70.0254 21.181C70.1654 21.2183 70.317 21.237 70.4804 21.237ZM75.6021 22V14.909H76.3441C76.5214 14.909 76.6334 14.9953 76.6801 15.168L76.7781 15.938C77.0861 15.5973 77.4291 15.322 77.8071 15.112C78.1897 14.902 78.6307 14.797 79.1301 14.797C79.5174 14.797 79.8581 14.8623 80.1521 14.993C80.4507 15.119 80.6981 15.301 80.8941 15.539C81.0947 15.7723 81.2464 16.0547 81.3491 16.386C81.4517 16.7173 81.5031 17.0837 81.5031 17.485V22H80.2571V17.485C80.2571 16.9483 80.1334 16.533 79.8861 16.239C79.6434 15.9403 79.2701 15.791 78.7661 15.791C78.3974 15.791 78.0521 15.8797 77.7301 16.057C77.4127 16.2343 77.1187 16.4747 76.8481 16.778V22H75.6021ZM88.2374 22.112C87.6774 22.112 87.2457 21.9557 86.9424 21.643C86.6437 21.3303 86.4944 20.88 86.4944 20.292V15.952H85.6404C85.5657 15.952 85.5027 15.931 85.4514 15.889C85.4001 15.8423 85.3744 15.7723 85.3744 15.679V15.182L86.5364 15.035L86.8234 12.844C86.8327 12.774 86.8631 12.718 86.9144 12.676C86.9657 12.6293 87.0311 12.606 87.1104 12.606H87.7404V15.049H89.7704V15.952H87.7404V20.208C87.7404 20.5067 87.8127 20.7283 87.9574 20.873C88.1021 21.0177 88.2887 21.09 88.5174 21.09C88.6481 21.09 88.7601 21.0737 88.8534 21.041C88.9514 21.0037 89.0354 20.964 89.1054 20.922C89.1754 20.88 89.2337 20.8427 89.2804 20.81C89.3317 20.7727 89.3761 20.754 89.4134 20.754C89.4787 20.754 89.5371 20.7937 89.5884 20.873L89.9524 21.468C89.7377 21.6687 89.4787 21.8273 89.1754 21.944C88.8721 22.056 88.5594 22.112 88.2374 22.112ZM93.3901 24.093C93.3481 24.1863 93.2944 24.261 93.2291 24.317C93.1684 24.373 93.0727 24.401 92.9421 24.401H92.0181L93.3131 21.587L90.3871 14.909H91.4651C91.5724 14.909 91.6564 14.937 91.7171 14.993C91.7777 15.0443 91.8221 15.1027 91.8501 15.168L93.7471 19.634C93.7891 19.7367 93.8241 19.8393 93.8521 19.942C93.8847 20.0447 93.9127 20.1497 93.9361 20.257C93.9687 20.1497 94.0014 20.0447 94.0341 19.942C94.0667 19.8393 94.1041 19.7343 94.1461 19.627L95.9871 15.168C96.0151 15.0933 96.0617 15.0327 96.1271 14.986C96.1971 14.9347 96.2717 14.909 96.3511 14.909H97.3451L93.3901 24.093ZM98.4751 24.401V14.909H99.2171C99.3945 14.909 99.5065 14.9953 99.5531 15.168L99.6581 16.008C99.9615 15.6393 100.307 15.343 100.694 15.119C101.086 14.895 101.536 14.783 102.045 14.783C102.451 14.783 102.82 14.8623 103.151 15.021C103.482 15.175 103.765 15.406 103.998 15.714C104.231 16.0173 104.411 16.3953 104.537 16.848C104.663 17.3007 104.726 17.821 104.726 18.409C104.726 18.9317 104.656 19.4193 104.516 19.872C104.376 20.32 104.175 20.7097 103.914 21.041C103.653 21.3677 103.331 21.6267 102.948 21.818C102.57 22.0047 102.143 22.098 101.667 22.098C101.228 22.098 100.853 22.0257 100.54 21.881C100.232 21.7363 99.9591 21.531 99.7211 21.265V24.401H98.4751ZM101.632 15.791C101.226 15.791 100.869 15.8843 100.561 16.071C100.258 16.2577 99.9778 16.5213 99.7211 16.862V20.292C99.9498 20.6 100.199 20.817 100.47 20.943C100.745 21.069 101.051 21.132 101.387 21.132C102.045 21.132 102.551 20.8963 102.906 20.425C103.261 19.9537 103.438 19.2817 103.438 18.409C103.438 17.947 103.396 17.5503 103.312 17.219C103.233 16.8877 103.116 16.617 102.962 16.407C102.808 16.1923 102.619 16.036 102.395 15.938C102.171 15.84 101.917 15.791 101.632 15.791ZM109.007 14.797C109.431 14.797 109.823 14.8693 110.183 15.014C110.542 15.154 110.852 15.3593 111.114 15.63C111.375 15.896 111.578 16.2273 111.723 16.624C111.872 17.016 111.947 17.464 111.947 17.968C111.947 18.164 111.926 18.2947 111.884 18.36C111.842 18.4253 111.762 18.458 111.646 18.458H106.928C106.937 18.906 106.998 19.2957 107.11 19.627C107.222 19.9583 107.376 20.236 107.572 20.46C107.768 20.6793 108.001 20.845 108.272 20.957C108.542 21.0643 108.846 21.118 109.182 21.118C109.494 21.118 109.763 21.083 109.987 21.013C110.215 20.9383 110.411 20.859 110.575 20.775C110.738 20.691 110.873 20.614 110.981 20.544C111.093 20.4693 111.188 20.432 111.268 20.432C111.37 20.432 111.45 20.4717 111.506 20.551L111.856 21.006C111.702 21.1927 111.517 21.356 111.303 21.496C111.088 21.6313 110.857 21.7433 110.61 21.832C110.367 21.9207 110.115 21.986 109.854 22.028C109.592 22.0747 109.333 22.098 109.077 22.098C108.587 22.098 108.134 22.0163 107.719 21.853C107.308 21.685 106.951 21.4423 106.648 21.125C106.349 20.803 106.116 20.4063 105.948 19.935C105.78 19.4637 105.696 18.9223 105.696 18.311C105.696 17.8163 105.77 17.3543 105.92 16.925C106.074 16.4957 106.293 16.1247 106.578 15.812C106.862 15.4947 107.21 15.2473 107.621 15.07C108.031 14.888 108.493 14.797 109.007 14.797ZM109.035 15.714C108.433 15.714 107.959 15.889 107.614 16.239C107.268 16.5843 107.054 17.065 106.97 17.681H110.827C110.827 17.3917 110.787 17.128 110.708 16.89C110.628 16.6473 110.512 16.4397 110.358 16.267C110.204 16.0897 110.015 15.9543 109.791 15.861C109.571 15.763 109.319 15.714 109.035 15.714ZM121.24 22C121.062 22 120.95 21.9137 120.904 21.741L120.792 20.88C120.488 21.2487 120.141 21.545 119.749 21.769C119.361 21.9883 118.916 22.098 118.412 22.098C118.006 22.098 117.637 22.021 117.306 21.867C116.974 21.7083 116.692 21.4773 116.459 21.174C116.225 20.8707 116.046 20.4927 115.92 20.04C115.794 19.5873 115.731 19.067 115.731 18.479C115.731 17.9563 115.801 17.471 115.941 17.023C116.081 16.5703 116.281 16.1783 116.543 15.847C116.809 15.5157 117.131 15.2567 117.509 15.07C117.887 14.8787 118.316 14.783 118.797 14.783C119.231 14.783 119.602 14.8577 119.91 15.007C120.218 15.1517 120.493 15.357 120.736 15.623V11.689H121.982V22H121.24ZM118.825 21.09C119.231 21.09 119.585 20.9967 119.889 20.81C120.197 20.6233 120.479 20.3597 120.736 20.019V16.589C120.507 16.281 120.255 16.0663 119.98 15.945C119.709 15.819 119.408 15.756 119.077 15.756C118.414 15.756 117.905 15.9917 117.551 16.463C117.196 16.9343 117.019 17.6063 117.019 18.479C117.019 18.941 117.058 19.3377 117.138 19.669C117.217 19.9957 117.334 20.2663 117.488 20.481C117.642 20.691 117.831 20.845 118.055 20.943C118.279 21.041 118.535 21.09 118.825 21.09ZM125.147 14.909V19.431C125.147 19.9677 125.271 20.383 125.518 20.677C125.765 20.971 126.139 21.118 126.638 21.118C127.002 21.118 127.345 21.0317 127.667 20.859C127.989 20.6863 128.285 20.446 128.556 20.138V14.909H129.802V22H129.06C128.883 22 128.771 21.9137 128.724 21.741L128.626 20.978C128.318 21.3187 127.973 21.594 127.59 21.804C127.207 22.0093 126.769 22.112 126.274 22.112C125.887 22.112 125.544 22.049 125.245 21.923C124.951 21.7923 124.704 21.6103 124.503 21.377C124.302 21.1437 124.151 20.8613 124.048 20.53C123.95 20.1987 123.901 19.8323 123.901 19.431V14.909H125.147ZM131.848 22V14.909H132.562C132.698 14.909 132.791 14.9347 132.842 14.986C132.894 15.0373 132.929 15.126 132.947 15.252L133.031 16.358C133.274 15.8633 133.573 15.4783 133.927 15.203C134.287 14.923 134.707 14.783 135.187 14.783C135.383 14.783 135.561 14.8063 135.719 14.853C135.878 14.895 136.025 14.9557 136.16 15.035L135.999 15.966C135.967 16.0827 135.894 16.141 135.782 16.141C135.717 16.141 135.617 16.12 135.481 16.078C135.346 16.0313 135.157 16.008 134.914 16.008C134.48 16.008 134.116 16.134 133.822 16.386C133.533 16.638 133.29 17.0043 133.094 17.485V22H131.848ZM138.881 14.909V22H137.635V14.909H138.881ZM139.161 12.683C139.161 12.8043 139.135 12.9187 139.084 13.026C139.037 13.1287 138.972 13.222 138.888 13.306C138.808 13.3853 138.715 13.4483 138.608 13.495C138.5 13.5417 138.386 13.565 138.265 13.565C138.143 13.565 138.029 13.5417 137.922 13.495C137.819 13.4483 137.726 13.3853 137.642 13.306C137.562 13.222 137.499 13.1287 137.453 13.026C137.406 12.9187 137.383 12.8043 137.383 12.683C137.383 12.5617 137.406 12.4473 137.453 12.34C137.499 12.228 137.562 12.1323 137.642 12.053C137.726 11.969 137.819 11.9037 137.922 11.857C138.029 11.8103 138.143 11.787 138.265 11.787C138.386 11.787 138.5 11.8103 138.608 11.857C138.715 11.9037 138.808 11.969 138.888 12.053C138.972 12.1323 139.037 12.228 139.084 12.34C139.135 12.4473 139.161 12.5617 139.161 12.683ZM141.077 22V14.909H141.819C141.996 14.909 142.108 14.9953 142.155 15.168L142.253 15.938C142.561 15.5973 142.904 15.322 143.282 15.112C143.664 14.902 144.105 14.797 144.605 14.797C144.992 14.797 145.333 14.8623 145.627 14.993C145.925 15.119 146.173 15.301 146.369 15.539C146.569 15.7723 146.721 16.0547 146.824 16.386C146.926 16.7173 146.978 17.0837 146.978 17.485V22H145.732V17.485C145.732 16.9483 145.608 16.533 145.361 16.239C145.118 15.9403 144.745 15.791 144.241 15.791C143.872 15.791 143.527 15.8797 143.205 16.057C142.887 16.2343 142.593 16.4747 142.323 16.778V22H141.077ZM151.243 14.79C151.551 14.79 151.838 14.825 152.104 14.895C152.375 14.9603 152.62 15.0583 152.839 15.189H154.764V15.651C154.764 15.805 154.666 15.903 154.47 15.945L153.665 16.057C153.824 16.3603 153.903 16.6987 153.903 17.072C153.903 17.4173 153.835 17.7323 153.7 18.017C153.569 18.297 153.385 18.5373 153.147 18.738C152.914 18.9387 152.634 19.0927 152.307 19.2C151.985 19.3073 151.63 19.361 151.243 19.361C150.912 19.361 150.599 19.3213 150.305 19.242C150.156 19.3353 150.041 19.4357 149.962 19.543C149.887 19.6503 149.85 19.7553 149.85 19.858C149.85 20.026 149.918 20.1543 150.053 20.243C150.188 20.327 150.368 20.3877 150.592 20.425C150.816 20.4623 151.07 20.4857 151.355 20.495C151.64 20.5043 151.929 20.5207 152.223 20.544C152.522 20.5627 152.813 20.5977 153.098 20.649C153.383 20.7003 153.637 20.7843 153.861 20.901C154.085 21.0177 154.265 21.1787 154.4 21.384C154.535 21.5893 154.603 21.8553 154.603 22.182C154.603 22.4853 154.526 22.7793 154.372 23.064C154.223 23.3487 154.006 23.6007 153.721 23.82C153.436 24.044 153.089 24.2213 152.678 24.352C152.267 24.4873 151.803 24.555 151.285 24.555C150.767 24.555 150.312 24.5037 149.92 24.401C149.533 24.2983 149.211 24.1607 148.954 23.988C148.697 23.8153 148.504 23.6147 148.373 23.386C148.247 23.162 148.184 22.9263 148.184 22.679C148.184 22.329 148.294 22.0327 148.513 21.79C148.737 21.5427 149.043 21.3467 149.43 21.202C149.229 21.1087 149.068 20.985 148.947 20.831C148.83 20.6723 148.772 20.4623 148.772 20.201C148.772 20.0983 148.791 19.9933 148.828 19.886C148.865 19.774 148.921 19.6643 148.996 19.557C149.075 19.4497 149.171 19.347 149.283 19.249C149.395 19.151 149.526 19.0647 149.675 18.99C149.325 18.794 149.05 18.535 148.849 18.213C148.653 17.8863 148.555 17.506 148.555 17.072C148.555 16.7267 148.62 16.414 148.751 16.134C148.886 15.8493 149.073 15.609 149.311 15.413C149.549 15.2123 149.831 15.0583 150.158 14.951C150.489 14.8437 150.851 14.79 151.243 14.79ZM153.455 22.385C153.455 22.2077 153.406 22.0653 153.308 21.958C153.21 21.8507 153.077 21.769 152.909 21.713C152.741 21.6523 152.547 21.608 152.328 21.58C152.109 21.552 151.878 21.5333 151.635 21.524C151.392 21.51 151.145 21.496 150.893 21.482C150.641 21.468 150.401 21.4423 150.172 21.405C149.906 21.531 149.689 21.685 149.521 21.867C149.358 22.049 149.276 22.266 149.276 22.518C149.276 22.6767 149.316 22.8237 149.395 22.959C149.479 23.099 149.605 23.218 149.773 23.316C149.941 23.4187 150.151 23.498 150.403 23.554C150.66 23.6147 150.961 23.645 151.306 23.645C151.642 23.645 151.943 23.6147 152.209 23.554C152.475 23.4933 152.699 23.407 152.881 23.295C153.068 23.183 153.21 23.05 153.308 22.896C153.406 22.742 153.455 22.5717 153.455 22.385ZM151.243 18.535C151.495 18.535 151.717 18.5 151.908 18.43C152.104 18.36 152.267 18.262 152.398 18.136C152.529 18.01 152.627 17.8607 152.692 17.688C152.757 17.5107 152.79 17.317 152.79 17.107C152.79 16.673 152.657 16.3277 152.391 16.071C152.13 15.8143 151.747 15.686 151.243 15.686C150.744 15.686 150.361 15.8143 150.095 16.071C149.834 16.3277 149.703 16.673 149.703 17.107C149.703 17.317 149.736 17.5107 149.801 17.688C149.871 17.8607 149.971 18.01 150.102 18.136C150.233 18.262 150.394 18.36 150.585 18.43C150.776 18.5 150.996 18.535 151.243 18.535ZM160.862 22.112C160.302 22.112 159.871 21.9557 159.567 21.643C159.269 21.3303 159.119 20.88 159.119 20.292V15.952H158.265C158.191 15.952 158.128 15.931 158.076 15.889C158.025 15.8423 157.999 15.7723 157.999 15.679V15.182L159.161 15.035L159.448 12.844C159.458 12.774 159.488 12.718 159.539 12.676C159.591 12.6293 159.656 12.606 159.735 12.606H160.365V15.049H162.395V15.952H160.365V20.208C160.365 20.5067 160.438 20.7283 160.582 20.873C160.727 21.0177 160.914 21.09 161.142 21.09C161.273 21.09 161.385 21.0737 161.478 21.041C161.576 21.0037 161.66 20.964 161.73 20.922C161.8 20.88 161.859 20.8427 161.905 20.81C161.957 20.7727 162.001 20.754 162.038 20.754C162.104 20.754 162.162 20.7937 162.213 20.873L162.577 21.468C162.363 21.6687 162.104 21.8273 161.8 21.944C161.497 22.056 161.184 22.112 160.862 22.112ZM163.936 22V11.689H165.182V15.861C165.485 15.539 165.821 15.2823 166.19 15.091C166.559 14.895 166.983 14.797 167.464 14.797C167.851 14.797 168.192 14.8623 168.486 14.993C168.785 15.119 169.032 15.301 169.228 15.539C169.429 15.7723 169.58 16.0547 169.683 16.386C169.786 16.7173 169.837 17.0837 169.837 17.485V22H168.591V17.485C168.591 16.9483 168.467 16.533 168.22 16.239C167.977 15.9403 167.604 15.791 167.1 15.791C166.731 15.791 166.386 15.8797 166.064 16.057C165.747 16.2343 165.453 16.4747 165.182 16.778V22H163.936ZM174.522 14.797C174.947 14.797 175.339 14.8693 175.698 15.014C176.058 15.154 176.368 15.3593 176.629 15.63C176.891 15.896 177.094 16.2273 177.238 16.624C177.388 17.016 177.462 17.464 177.462 17.968C177.462 18.164 177.441 18.2947 177.399 18.36C177.357 18.4253 177.278 18.458 177.161 18.458H172.443C172.453 18.906 172.513 19.2957 172.625 19.627C172.737 19.9583 172.891 20.236 173.087 20.46C173.283 20.6793 173.517 20.845 173.787 20.957C174.058 21.0643 174.361 21.118 174.697 21.118C175.01 21.118 175.278 21.083 175.502 21.013C175.731 20.9383 175.927 20.859 176.09 20.775C176.254 20.691 176.389 20.614 176.496 20.544C176.608 20.4693 176.704 20.432 176.783 20.432C176.886 20.432 176.965 20.4717 177.021 20.551L177.371 21.006C177.217 21.1927 177.033 21.356 176.818 21.496C176.604 21.6313 176.373 21.7433 176.125 21.832C175.883 21.9207 175.631 21.986 175.369 22.028C175.108 22.0747 174.849 22.098 174.592 22.098C174.102 22.098 173.65 22.0163 173.234 21.853C172.824 21.685 172.467 21.4423 172.163 21.125C171.865 20.803 171.631 20.4063 171.463 19.935C171.295 19.4637 171.211 18.9223 171.211 18.311C171.211 17.8163 171.286 17.3543 171.435 16.925C171.589 16.4957 171.809 16.1247 172.093 15.812C172.378 15.4947 172.726 15.2473 173.136 15.07C173.547 14.888 174.009 14.797 174.522 14.797ZM174.55 15.714C173.948 15.714 173.475 15.889 173.129 16.239C172.784 16.5843 172.569 17.065 172.485 17.681H176.342C176.342 17.3917 176.303 17.128 176.223 16.89C176.144 16.6473 176.027 16.4397 175.873 16.267C175.719 16.0897 175.53 15.9543 175.306 15.861C175.087 15.763 174.835 15.714 174.55 15.714ZM186.601 16.169C186.564 16.2203 186.527 16.26 186.489 16.288C186.452 16.316 186.398 16.33 186.328 16.33C186.258 16.33 186.181 16.302 186.097 16.246C186.018 16.1853 185.915 16.12 185.789 16.05C185.663 15.98 185.509 15.917 185.327 15.861C185.15 15.8003 184.931 15.77 184.669 15.77C184.324 15.77 184.018 15.833 183.752 15.959C183.486 16.0803 183.262 16.2577 183.08 16.491C182.903 16.7243 182.768 17.0067 182.674 17.338C182.586 17.6693 182.541 18.0403 182.541 18.451C182.541 18.8803 182.59 19.263 182.688 19.599C182.786 19.9303 182.924 20.2103 183.101 20.439C183.279 20.663 183.493 20.8357 183.745 20.957C184.002 21.0737 184.289 21.132 184.606 21.132C184.91 21.132 185.159 21.097 185.355 21.027C185.551 20.9523 185.715 20.8707 185.845 20.782C185.976 20.6933 186.083 20.614 186.167 20.544C186.251 20.4693 186.335 20.432 186.419 20.432C186.527 20.432 186.606 20.4717 186.657 20.551L187.007 21.006C186.699 21.384 186.314 21.6617 185.852 21.839C185.39 22.0117 184.903 22.098 184.389 22.098C183.946 22.098 183.533 22.0163 183.15 21.853C182.772 21.6897 182.443 21.454 182.163 21.146C181.883 20.8333 181.662 20.4507 181.498 19.998C181.34 19.5453 181.26 19.0297 181.26 18.451C181.26 17.9237 181.333 17.436 181.477 16.988C181.627 16.54 181.841 16.155 182.121 15.833C182.406 15.5063 182.756 15.252 183.171 15.07C183.587 14.888 184.063 14.797 184.599 14.797C185.094 14.797 185.533 14.8787 185.915 15.042C186.298 15.2007 186.636 15.427 186.93 15.721L186.601 16.169ZM193.507 22H192.954C192.833 22 192.735 21.9813 192.66 21.944C192.586 21.9067 192.537 21.8273 192.513 21.706L192.373 21.048C192.187 21.216 192.005 21.3677 191.827 21.503C191.65 21.6337 191.463 21.7457 191.267 21.839C191.071 21.9277 190.861 21.9953 190.637 22.042C190.418 22.0887 190.173 22.112 189.902 22.112C189.627 22.112 189.368 22.0747 189.125 22C188.887 21.9207 188.68 21.804 188.502 21.65C188.325 21.496 188.183 21.3023 188.075 21.069C187.973 20.831 187.921 20.551 187.921 20.229C187.921 19.949 187.998 19.6807 188.152 19.424C188.306 19.1627 188.554 18.9317 188.894 18.731C189.24 18.5303 189.69 18.367 190.245 18.241C190.801 18.1103 191.48 18.0357 192.282 18.017V17.464C192.282 16.9133 192.163 16.498 191.925 16.218C191.692 15.9333 191.344 15.791 190.882 15.791C190.579 15.791 190.322 15.8307 190.112 15.91C189.907 15.9847 189.727 16.071 189.573 16.169C189.424 16.2623 189.293 16.3487 189.181 16.428C189.074 16.5027 188.967 16.54 188.859 16.54C188.775 16.54 188.701 16.519 188.635 16.477C188.575 16.4303 188.526 16.3743 188.488 16.309L188.264 15.91C188.656 15.532 189.079 15.2497 189.531 15.063C189.984 14.8763 190.486 14.783 191.036 14.783C191.433 14.783 191.785 14.8483 192.093 14.979C192.401 15.1097 192.66 15.2917 192.87 15.525C193.08 15.7583 193.239 16.0407 193.346 16.372C193.454 16.7033 193.507 17.0673 193.507 17.464V22ZM190.273 21.237C190.493 21.237 190.693 21.216 190.875 21.174C191.057 21.1273 191.228 21.0643 191.386 20.985C191.55 20.901 191.704 20.8007 191.848 20.684C191.998 20.5673 192.142 20.4343 192.282 20.285V18.808C191.708 18.8267 191.221 18.8733 190.819 18.948C190.418 19.018 190.091 19.1113 189.839 19.228C189.587 19.3447 189.403 19.4823 189.286 19.641C189.174 19.7997 189.118 19.977 189.118 20.173C189.118 20.3597 189.149 20.5207 189.209 20.656C189.27 20.7913 189.352 20.9033 189.454 20.992C189.557 21.076 189.678 21.139 189.818 21.181C189.958 21.2183 190.11 21.237 190.273 21.237ZM196.781 11.689V22H195.535V11.689H196.781ZM200.363 11.689V22H199.117V11.689H200.363ZM202.153 21.23C202.153 21.1087 202.174 20.9943 202.216 20.887C202.263 20.7797 202.323 20.6863 202.398 20.607C202.477 20.5277 202.571 20.4647 202.678 20.418C202.785 20.3713 202.9 20.348 203.021 20.348C203.142 20.348 203.257 20.3713 203.364 20.418C203.471 20.4647 203.565 20.5277 203.644 20.607C203.723 20.6863 203.784 20.7797 203.826 20.887C203.873 20.9943 203.896 21.1087 203.896 21.23C203.896 21.356 203.873 21.4727 203.826 21.58C203.784 21.6827 203.723 21.7737 203.644 21.853C203.565 21.9323 203.471 21.993 203.364 22.035C203.257 22.0817 203.142 22.105 203.021 22.105C202.9 22.105 202.785 22.0817 202.678 22.035C202.571 21.993 202.477 21.9323 202.398 21.853C202.323 21.7737 202.263 21.6827 202.216 21.58C202.174 21.4727 202.153 21.356 202.153 21.23Z" fill="#1A1C1D"/>
</g>
</svg>
