<svg width="265" height="54" viewBox="0 0 265 54" fill="none" xmlns="http://www.w3.org/2000/svg">
<g opacity="0.8">
<path d="M20 17C20 7.61116 27.6112 0 37 0H228C237.389 0 245 7.61116 245 17V54H37C27.6112 54 20 46.3888 20 37V17Z" fill="#E0E0E0"/>
<path d="M40.082 18.01V22H38.731V18.01L35.056 11.969H36.246C36.3673 11.969 36.463 11.9993 36.533 12.06C36.603 12.1207 36.6637 12.1953 36.715 12.284L39.011 16.183C39.1043 16.3463 39.1813 16.5003 39.242 16.645C39.3073 16.7897 39.3657 16.932 39.417 17.072C39.4683 16.9273 39.5243 16.7827 39.585 16.638C39.6457 16.4933 39.7227 16.3417 39.816 16.183L42.105 12.284C42.147 12.2093 42.203 12.1393 42.273 12.074C42.3477 12.004 42.4433 11.969 42.56 11.969H43.764L40.082 18.01ZM46.5756 14.797C47.0936 14.797 47.5603 14.8833 47.9756 15.056C48.3956 15.2287 48.7503 15.4737 49.0396 15.791C49.3336 16.1083 49.5576 16.4933 49.7116 16.946C49.8703 17.394 49.9496 17.8957 49.9496 18.451C49.9496 19.011 49.8703 19.515 49.7116 19.963C49.5576 20.411 49.3336 20.7937 49.0396 21.111C48.7503 21.4283 48.3956 21.6733 47.9756 21.846C47.5603 22.014 47.0936 22.098 46.5756 22.098C46.0576 22.098 45.5886 22.014 45.1686 21.846C44.7533 21.6733 44.3986 21.4283 44.1046 21.111C43.8106 20.7937 43.5843 20.411 43.4256 19.963C43.2669 19.515 43.1876 19.011 43.1876 18.451C43.1876 17.8957 43.2669 17.394 43.4256 16.946C43.5843 16.4933 43.8106 16.1083 44.1046 15.791C44.3986 15.4737 44.7533 15.2287 45.1686 15.056C45.5886 14.8833 46.0576 14.797 46.5756 14.797ZM46.5756 21.125C47.2756 21.125 47.7983 20.8917 48.1436 20.425C48.4889 19.9537 48.6616 19.298 48.6616 18.458C48.6616 17.6133 48.4889 16.9553 48.1436 16.484C47.7983 16.0127 47.2756 15.777 46.5756 15.777C46.2209 15.777 45.9129 15.8377 45.6516 15.959C45.3903 16.0803 45.1709 16.2553 44.9936 16.484C44.8209 16.7127 44.6903 16.995 44.6016 17.331C44.5176 17.6623 44.4756 18.038 44.4756 18.458C44.4756 18.878 44.5176 19.2537 44.6016 19.585C44.6903 19.9163 44.8209 20.1963 44.9936 20.425C45.1709 20.649 45.3903 20.8217 45.6516 20.943C45.9129 21.0643 46.2209 21.125 46.5756 21.125ZM52.5629 14.909V19.431C52.5629 19.9677 52.6866 20.383 52.9339 20.677C53.1812 20.971 53.5546 21.118 54.0539 21.118C54.4179 21.118 54.7609 21.0317 55.0829 20.859C55.4049 20.6863 55.7012 20.446 55.9719 20.138V14.909H57.2179V22H56.4759C56.2986 22 56.1866 21.9137 56.1399 21.741L56.0419 20.978C55.7339 21.3187 55.3886 21.594 55.0059 21.804C54.6232 22.0093 54.1846 22.112 53.6899 22.112C53.3026 22.112 52.9596 22.049 52.6609 21.923C52.3669 21.7923 52.1196 21.6103 51.9189 21.377C51.7182 21.1437 51.5666 20.8613 51.4639 20.53C51.3659 20.1987 51.3169 19.8323 51.3169 19.431V14.909H52.5629ZM59.2642 22V14.909H59.9782C60.1135 14.909 60.2069 14.9347 60.2582 14.986C60.3095 15.0373 60.3445 15.126 60.3632 15.252L60.4472 16.358C60.6899 15.8633 60.9885 15.4783 61.3432 15.203C61.7025 14.923 62.1225 14.783 62.6032 14.783C62.7992 14.783 62.9765 14.8063 63.1352 14.853C63.2939 14.895 63.4409 14.9557 63.5762 15.035L63.4152 15.966C63.3825 16.0827 63.3102 16.141 63.1982 16.141C63.1329 16.141 63.0325 16.12 62.8972 16.078C62.7619 16.0313 62.5729 16.008 62.3302 16.008C61.8962 16.008 61.5322 16.134 61.2382 16.386C60.9489 16.638 60.7062 17.0043 60.5102 17.485V22H59.2642ZM67.6177 22V14.909H68.3597C68.537 14.909 68.649 14.9953 68.6957 15.168L68.7867 15.896C69.048 15.574 69.3397 15.3103 69.6617 15.105C69.9884 14.8997 70.3664 14.797 70.7957 14.797C71.2764 14.797 71.6637 14.93 71.9577 15.196C72.2564 15.462 72.471 15.8213 72.6017 16.274C72.6997 16.0173 72.828 15.7957 72.9867 15.609C73.15 15.4223 73.332 15.2683 73.5327 15.147C73.7334 15.0257 73.9457 14.937 74.1697 14.881C74.3984 14.825 74.6294 14.797 74.8627 14.797C75.236 14.797 75.5674 14.8577 75.8567 14.979C76.1507 15.0957 76.398 15.2683 76.5987 15.497C76.804 15.7257 76.9604 16.008 77.0677 16.344C77.175 16.6753 77.2287 17.0557 77.2287 17.485V22H75.9827V17.485C75.9827 16.9297 75.8614 16.5097 75.6187 16.225C75.376 15.9357 75.0237 15.791 74.5617 15.791C74.3564 15.791 74.1604 15.8283 73.9737 15.903C73.7917 15.973 73.6307 16.078 73.4907 16.218C73.3507 16.358 73.2387 16.5353 73.1547 16.75C73.0754 16.96 73.0357 17.205 73.0357 17.485V22H71.7897V17.485C71.7897 16.9157 71.6754 16.491 71.4467 16.211C71.218 15.931 70.8844 15.791 70.4457 15.791C70.1377 15.791 69.8507 15.875 69.5847 16.043C69.3234 16.2063 69.083 16.4303 68.8637 16.715V22H67.6177ZM80.5018 14.909V22H79.2558V14.909H80.5018ZM80.7818 12.683C80.7818 12.8043 80.7561 12.9187 80.7048 13.026C80.6581 13.1287 80.5928 13.222 80.5088 13.306C80.4294 13.3853 80.3361 13.4483 80.2288 13.495C80.1214 13.5417 80.0071 13.565 79.8858 13.565C79.7644 13.565 79.6501 13.5417 79.5428 13.495C79.4401 13.4483 79.3468 13.3853 79.2628 13.306C79.1834 13.222 79.1204 13.1287 79.0738 13.026C79.0271 12.9187 79.0038 12.8043 79.0038 12.683C79.0038 12.5617 79.0271 12.4473 79.0738 12.34C79.1204 12.228 79.1834 12.1323 79.2628 12.053C79.3468 11.969 79.4401 11.9037 79.5428 11.857C79.6501 11.8103 79.7644 11.787 79.8858 11.787C80.0071 11.787 80.1214 11.8103 80.2288 11.857C80.3361 11.9037 80.4294 11.969 80.5088 12.053C80.5928 12.1323 80.6581 12.228 80.7048 12.34C80.7561 12.4473 80.7818 12.5617 80.7818 12.683ZM87.5348 16.169C87.4974 16.2203 87.4601 16.26 87.4228 16.288C87.3854 16.316 87.3318 16.33 87.2618 16.33C87.1918 16.33 87.1148 16.302 87.0308 16.246C86.9514 16.1853 86.8488 16.12 86.7228 16.05C86.5968 15.98 86.4428 15.917 86.2608 15.861C86.0834 15.8003 85.8641 15.77 85.6028 15.77C85.2574 15.77 84.9518 15.833 84.6858 15.959C84.4198 16.0803 84.1958 16.2577 84.0138 16.491C83.8364 16.7243 83.7011 17.0067 83.6078 17.338C83.5191 17.6693 83.4748 18.0403 83.4748 18.451C83.4748 18.8803 83.5238 19.263 83.6218 19.599C83.7198 19.9303 83.8574 20.2103 84.0348 20.439C84.2121 20.663 84.4268 20.8357 84.6788 20.957C84.9354 21.0737 85.2224 21.132 85.5398 21.132C85.8431 21.132 86.0928 21.097 86.2888 21.027C86.4848 20.9523 86.6481 20.8707 86.7788 20.782C86.9094 20.6933 87.0168 20.614 87.1008 20.544C87.1848 20.4693 87.2688 20.432 87.3528 20.432C87.4601 20.432 87.5394 20.4717 87.5908 20.551L87.9408 21.006C87.6328 21.384 87.2478 21.6617 86.7858 21.839C86.3238 22.0117 85.8361 22.098 85.3228 22.098C84.8794 22.098 84.4664 22.0163 84.0838 21.853C83.7058 21.6897 83.3768 21.454 83.0968 21.146C82.8168 20.8333 82.5951 20.4507 82.4318 19.998C82.2731 19.5453 82.1938 19.0297 82.1938 18.451C82.1938 17.9237 82.2661 17.436 82.4108 16.988C82.5601 16.54 82.7748 16.155 83.0548 15.833C83.3394 15.5063 83.6894 15.252 84.1048 15.07C84.5201 14.888 84.9961 14.797 85.5328 14.797C86.0274 14.797 86.4661 14.8787 86.8488 15.042C87.2314 15.2007 87.5698 15.427 87.8638 15.721L87.5348 16.169ZM97.148 22H96.595C96.4736 22 96.3756 21.9813 96.301 21.944C96.2263 21.9067 96.1773 21.8273 96.154 21.706L96.014 21.048C95.8273 21.216 95.6453 21.3677 95.468 21.503C95.2906 21.6337 95.104 21.7457 94.908 21.839C94.712 21.9277 94.502 21.9953 94.278 22.042C94.0586 22.0887 93.8136 22.112 93.543 22.112C93.2676 22.112 93.0086 22.0747 92.766 22C92.528 21.9207 92.3203 21.804 92.143 21.65C91.9656 21.496 91.8233 21.3023 91.716 21.069C91.6133 20.831 91.562 20.551 91.562 20.229C91.562 19.949 91.639 19.6807 91.793 19.424C91.947 19.1627 92.1943 18.9317 92.535 18.731C92.8803 18.5303 93.3306 18.367 93.886 18.241C94.4413 18.1103 95.1203 18.0357 95.923 18.017V17.464C95.923 16.9133 95.804 16.498 95.566 16.218C95.3326 15.9333 94.985 15.791 94.523 15.791C94.2196 15.791 93.963 15.8307 93.753 15.91C93.5476 15.9847 93.368 16.071 93.214 16.169C93.0646 16.2623 92.934 16.3487 92.822 16.428C92.7146 16.5027 92.6073 16.54 92.5 16.54C92.416 16.54 92.3413 16.519 92.276 16.477C92.2153 16.4303 92.1663 16.3743 92.129 16.309L91.905 15.91C92.297 15.532 92.7193 15.2497 93.172 15.063C93.6246 14.8763 94.1263 14.783 94.677 14.783C95.0736 14.783 95.426 14.8483 95.734 14.979C96.042 15.1097 96.301 15.2917 96.511 15.525C96.721 15.7583 96.8796 16.0407 96.987 16.372C97.0943 16.7033 97.148 17.0673 97.148 17.464V22ZM93.914 21.237C94.1333 21.237 94.334 21.216 94.516 21.174C94.698 21.1273 94.8683 21.0643 95.027 20.985C95.1903 20.901 95.3443 20.8007 95.489 20.684C95.6383 20.5673 95.783 20.4343 95.923 20.285V18.808C95.349 18.8267 94.8613 18.8733 94.46 18.948C94.0586 19.018 93.732 19.1113 93.48 19.228C93.228 19.3447 93.0436 19.4823 92.927 19.641C92.815 19.7997 92.759 19.977 92.759 20.173C92.759 20.3597 92.7893 20.5207 92.85 20.656C92.9106 20.7913 92.9923 20.9033 93.095 20.992C93.1976 21.076 93.319 21.139 93.459 21.181C93.599 21.2183 93.7506 21.237 93.914 21.237ZM99.0357 22V14.909H99.7777C99.955 14.909 100.067 14.9953 100.114 15.168L100.212 15.938C100.52 15.5973 100.863 15.322 101.241 15.112C101.623 14.902 102.064 14.797 102.564 14.797C102.951 14.797 103.292 14.8623 103.586 14.993C103.884 15.119 104.132 15.301 104.328 15.539C104.528 15.7723 104.68 16.0547 104.783 16.386C104.885 16.7173 104.937 17.0837 104.937 17.485V22H103.691V17.485C103.691 16.9483 103.567 16.533 103.32 16.239C103.077 15.9403 102.704 15.791 102.2 15.791C101.831 15.791 101.486 15.8797 101.164 16.057C100.846 16.2343 100.552 16.4747 100.282 16.778V22H99.0357ZM111.806 22C111.629 22 111.517 21.9137 111.47 21.741L111.358 20.88C111.055 21.2487 110.707 21.545 110.315 21.769C109.928 21.9883 109.482 22.098 108.978 22.098C108.572 22.098 108.203 22.021 107.872 21.867C107.541 21.7083 107.258 21.4773 107.025 21.174C106.792 20.8707 106.612 20.4927 106.486 20.04C106.36 19.5873 106.297 19.067 106.297 18.479C106.297 17.9563 106.367 17.471 106.507 17.023C106.647 16.5703 106.848 16.1783 107.109 15.847C107.375 15.5157 107.697 15.2567 108.075 15.07C108.453 14.8787 108.882 14.783 109.363 14.783C109.797 14.783 110.168 14.8577 110.476 15.007C110.784 15.1517 111.059 15.357 111.302 15.623V11.689H112.548V22H111.806ZM109.391 21.09C109.797 21.09 110.152 20.9967 110.455 20.81C110.763 20.6233 111.045 20.3597 111.302 20.019V16.589C111.073 16.281 110.821 16.0663 110.546 15.945C110.275 15.819 109.974 15.756 109.643 15.756C108.98 15.756 108.472 15.9917 108.117 16.463C107.762 16.9343 107.585 17.6063 107.585 18.479C107.585 18.941 107.625 19.3377 107.704 19.669C107.783 19.9957 107.9 20.2663 108.054 20.481C108.208 20.691 108.397 20.845 108.621 20.943C108.845 21.041 109.102 21.09 109.391 21.09ZM122.179 16.169C122.142 16.2203 122.105 16.26 122.067 16.288C122.03 16.316 121.976 16.33 121.906 16.33C121.836 16.33 121.759 16.302 121.675 16.246C121.596 16.1853 121.493 16.12 121.367 16.05C121.241 15.98 121.087 15.917 120.905 15.861C120.728 15.8003 120.509 15.77 120.247 15.77C119.902 15.77 119.596 15.833 119.33 15.959C119.064 16.0803 118.84 16.2577 118.658 16.491C118.481 16.7243 118.346 17.0067 118.252 17.338C118.164 17.6693 118.119 18.0403 118.119 18.451C118.119 18.8803 118.168 19.263 118.266 19.599C118.364 19.9303 118.502 20.2103 118.679 20.439C118.857 20.663 119.071 20.8357 119.323 20.957C119.58 21.0737 119.867 21.132 120.184 21.132C120.488 21.132 120.737 21.097 120.933 21.027C121.129 20.9523 121.293 20.8707 121.423 20.782C121.554 20.6933 121.661 20.614 121.745 20.544C121.829 20.4693 121.913 20.432 121.997 20.432C122.105 20.432 122.184 20.4717 122.235 20.551L122.585 21.006C122.277 21.384 121.892 21.6617 121.43 21.839C120.968 22.0117 120.481 22.098 119.967 22.098C119.524 22.098 119.111 22.0163 118.728 21.853C118.35 21.6897 118.021 21.454 117.741 21.146C117.461 20.8333 117.24 20.4507 117.076 19.998C116.918 19.5453 116.838 19.0297 116.838 18.451C116.838 17.9237 116.911 17.436 117.055 16.988C117.205 16.54 117.419 16.155 117.699 15.833C117.984 15.5063 118.334 15.252 118.749 15.07C119.165 14.888 119.641 14.797 120.177 14.797C120.672 14.797 121.111 14.8787 121.493 15.042C121.876 15.2007 122.214 15.427 122.508 15.721L122.179 16.169ZM129.085 22H128.532C128.411 22 128.313 21.9813 128.238 21.944C128.164 21.9067 128.115 21.8273 128.091 21.706L127.951 21.048C127.765 21.216 127.583 21.3677 127.405 21.503C127.228 21.6337 127.041 21.7457 126.845 21.839C126.649 21.9277 126.439 21.9953 126.215 22.042C125.996 22.0887 125.751 22.112 125.48 22.112C125.205 22.112 124.946 22.0747 124.703 22C124.465 21.9207 124.258 21.804 124.08 21.65C123.903 21.496 123.761 21.3023 123.653 21.069C123.551 20.831 123.499 20.551 123.499 20.229C123.499 19.949 123.576 19.6807 123.73 19.424C123.884 19.1627 124.132 18.9317 124.472 18.731C124.818 18.5303 125.268 18.367 125.823 18.241C126.379 18.1103 127.058 18.0357 127.86 18.017V17.464C127.86 16.9133 127.741 16.498 127.503 16.218C127.27 15.9333 126.922 15.791 126.46 15.791C126.157 15.791 125.9 15.8307 125.69 15.91C125.485 15.9847 125.305 16.071 125.151 16.169C125.002 16.2623 124.871 16.3487 124.759 16.428C124.652 16.5027 124.545 16.54 124.437 16.54C124.353 16.54 124.279 16.519 124.213 16.477C124.153 16.4303 124.104 16.3743 124.066 16.309L123.842 15.91C124.234 15.532 124.657 15.2497 125.109 15.063C125.562 14.8763 126.064 14.783 126.614 14.783C127.011 14.783 127.363 14.8483 127.671 14.979C127.979 15.1097 128.238 15.2917 128.448 15.525C128.658 15.7583 128.817 16.0407 128.924 16.372C129.032 16.7033 129.085 17.0673 129.085 17.464V22ZM125.851 21.237C126.071 21.237 126.271 21.216 126.453 21.174C126.635 21.1273 126.806 21.0643 126.964 20.985C127.128 20.901 127.282 20.8007 127.426 20.684C127.576 20.5673 127.72 20.4343 127.86 20.285V18.808C127.286 18.8267 126.799 18.8733 126.397 18.948C125.996 19.018 125.669 19.1113 125.417 19.228C125.165 19.3447 124.981 19.4823 124.864 19.641C124.752 19.7997 124.696 19.977 124.696 20.173C124.696 20.3597 124.727 20.5207 124.787 20.656C124.848 20.7913 124.93 20.9033 125.032 20.992C125.135 21.076 125.256 21.139 125.396 21.181C125.536 21.2183 125.688 21.237 125.851 21.237ZM130.973 22V14.909H131.715C131.893 14.909 132.005 14.9953 132.051 15.168L132.142 15.896C132.404 15.574 132.695 15.3103 133.017 15.105C133.344 14.8997 133.722 14.797 134.151 14.797C134.632 14.797 135.019 14.93 135.313 15.196C135.612 15.462 135.827 15.8213 135.957 16.274C136.055 16.0173 136.184 15.7957 136.342 15.609C136.506 15.4223 136.688 15.2683 136.888 15.147C137.089 15.0257 137.301 14.937 137.525 14.881C137.754 14.825 137.985 14.797 138.218 14.797C138.592 14.797 138.923 14.8577 139.212 14.979C139.506 15.0957 139.754 15.2683 139.954 15.497C140.16 15.7257 140.316 16.008 140.423 16.344C140.531 16.6753 140.584 17.0557 140.584 17.485V22H139.338V17.485C139.338 16.9297 139.217 16.5097 138.974 16.225C138.732 15.9357 138.379 15.791 137.917 15.791C137.712 15.791 137.516 15.8283 137.329 15.903C137.147 15.973 136.986 16.078 136.846 16.218C136.706 16.358 136.594 16.5353 136.51 16.75C136.431 16.96 136.391 17.205 136.391 17.485V22H135.145V17.485C135.145 16.9157 135.031 16.491 134.802 16.211C134.574 15.931 134.24 15.791 133.801 15.791C133.493 15.791 133.206 15.875 132.94 16.043C132.679 16.2063 132.439 16.4303 132.219 16.715V22H130.973ZM145.278 14.797C145.703 14.797 146.095 14.8693 146.454 15.014C146.814 15.154 147.124 15.3593 147.385 15.63C147.647 15.896 147.85 16.2273 147.994 16.624C148.144 17.016 148.218 17.464 148.218 17.968C148.218 18.164 148.197 18.2947 148.155 18.36C148.113 18.4253 148.034 18.458 147.917 18.458H143.199C143.209 18.906 143.269 19.2957 143.381 19.627C143.493 19.9583 143.647 20.236 143.843 20.46C144.039 20.6793 144.273 20.845 144.543 20.957C144.814 21.0643 145.117 21.118 145.453 21.118C145.766 21.118 146.034 21.083 146.258 21.013C146.487 20.9383 146.683 20.859 146.846 20.775C147.01 20.691 147.145 20.614 147.252 20.544C147.364 20.4693 147.46 20.432 147.539 20.432C147.642 20.432 147.721 20.4717 147.777 20.551L148.127 21.006C147.973 21.1927 147.789 21.356 147.574 21.496C147.36 21.6313 147.129 21.7433 146.881 21.832C146.639 21.9207 146.387 21.986 146.125 22.028C145.864 22.0747 145.605 22.098 145.348 22.098C144.858 22.098 144.406 22.0163 143.99 21.853C143.58 21.685 143.223 21.4423 142.919 21.125C142.621 20.803 142.387 20.4063 142.219 19.935C142.051 19.4637 141.967 18.9223 141.967 18.311C141.967 17.8163 142.042 17.3543 142.191 16.925C142.345 16.4957 142.565 16.1247 142.849 15.812C143.134 15.4947 143.482 15.2473 143.892 15.07C144.303 14.888 144.765 14.797 145.278 14.797ZM145.306 15.714C144.704 15.714 144.231 15.889 143.885 16.239C143.54 16.5843 143.325 17.065 143.241 17.681H147.098C147.098 17.3917 147.059 17.128 146.979 16.89C146.9 16.6473 146.783 16.4397 146.629 16.267C146.475 16.0897 146.286 15.9543 146.062 15.861C145.843 15.763 145.591 15.714 145.306 15.714ZM149.813 22V14.909H150.527C150.662 14.909 150.756 14.9347 150.807 14.986C150.858 15.0373 150.893 15.126 150.912 15.252L150.996 16.358C151.239 15.8633 151.537 15.4783 151.892 15.203C152.251 14.923 152.671 14.783 153.152 14.783C153.348 14.783 153.525 14.8063 153.684 14.853C153.843 14.895 153.99 14.9557 154.125 15.035L153.964 15.966C153.931 16.0827 153.859 16.141 153.747 16.141C153.682 16.141 153.581 16.12 153.446 16.078C153.311 16.0313 153.122 16.008 152.879 16.008C152.445 16.008 152.081 16.134 151.787 16.386C151.498 16.638 151.255 17.0043 151.059 17.485V22H149.813ZM160.408 22H159.855C159.733 22 159.635 21.9813 159.561 21.944C159.486 21.9067 159.437 21.8273 159.414 21.706L159.274 21.048C159.087 21.216 158.905 21.3677 158.728 21.503C158.55 21.6337 158.364 21.7457 158.168 21.839C157.972 21.9277 157.762 21.9953 157.538 22.042C157.318 22.0887 157.073 22.112 156.803 22.112C156.527 22.112 156.268 22.0747 156.026 22C155.788 21.9207 155.58 21.804 155.403 21.65C155.225 21.496 155.083 21.3023 154.976 21.069C154.873 20.831 154.822 20.551 154.822 20.229C154.822 19.949 154.899 19.6807 155.053 19.424C155.207 19.1627 155.454 18.9317 155.795 18.731C156.14 18.5303 156.59 18.367 157.146 18.241C157.701 18.1103 158.38 18.0357 159.183 18.017V17.464C159.183 16.9133 159.064 16.498 158.826 16.218C158.592 15.9333 158.245 15.791 157.783 15.791C157.479 15.791 157.223 15.8307 157.013 15.91C156.807 15.9847 156.628 16.071 156.474 16.169C156.324 16.2623 156.194 16.3487 156.082 16.428C155.974 16.5027 155.867 16.54 155.76 16.54C155.676 16.54 155.601 16.519 155.536 16.477C155.475 16.4303 155.426 16.3743 155.389 16.309L155.165 15.91C155.557 15.532 155.979 15.2497 156.432 15.063C156.884 14.8763 157.386 14.783 157.937 14.783C158.333 14.783 158.686 14.8483 158.994 14.979C159.302 15.1097 159.561 15.2917 159.771 15.525C159.981 15.7583 160.139 16.0407 160.247 16.372C160.354 16.7033 160.408 17.0673 160.408 17.464V22ZM157.174 21.237C157.393 21.237 157.594 21.216 157.776 21.174C157.958 21.1273 158.128 21.0643 158.287 20.985C158.45 20.901 158.604 20.8007 158.749 20.684C158.898 20.5673 159.043 20.4343 159.183 20.285V18.808C158.609 18.8267 158.121 18.8733 157.72 18.948C157.318 19.018 156.992 19.1113 156.74 19.228C156.488 19.3447 156.303 19.4823 156.187 19.641C156.075 19.7997 156.019 19.977 156.019 20.173C156.019 20.3597 156.049 20.5207 156.11 20.656C156.17 20.7913 156.252 20.9033 156.355 20.992C156.457 21.076 156.579 21.139 156.719 21.181C156.859 21.2183 157.01 21.237 157.174 21.237ZM169.993 22C169.816 22 169.704 21.9137 169.657 21.741L169.545 20.88C169.242 21.2487 168.894 21.545 168.502 21.769C168.115 21.9883 167.669 22.098 167.165 22.098C166.759 22.098 166.391 22.021 166.059 21.867C165.728 21.7083 165.446 21.4773 165.212 21.174C164.979 20.8707 164.799 20.4927 164.673 20.04C164.547 19.5873 164.484 19.067 164.484 18.479C164.484 17.9563 164.554 17.471 164.694 17.023C164.834 16.5703 165.035 16.1783 165.296 15.847C165.562 15.5157 165.884 15.2567 166.262 15.07C166.64 14.8787 167.07 14.783 167.55 14.783C167.984 14.783 168.355 14.8577 168.663 15.007C168.971 15.1517 169.247 15.357 169.489 15.623V11.689H170.735V22H169.993ZM167.578 21.09C167.984 21.09 168.339 20.9967 168.642 20.81C168.95 20.6233 169.233 20.3597 169.489 20.019V16.589C169.261 16.281 169.009 16.0663 168.733 15.945C168.463 15.819 168.162 15.756 167.83 15.756C167.168 15.756 166.659 15.9917 166.304 16.463C165.95 16.9343 165.772 17.6063 165.772 18.479C165.772 18.941 165.812 19.3377 165.891 19.669C165.971 19.9957 166.087 20.2663 166.241 20.481C166.395 20.691 166.584 20.845 166.808 20.943C167.032 21.041 167.289 21.09 167.578 21.09ZM175.693 14.797C176.211 14.797 176.677 14.8833 177.093 15.056C177.513 15.2287 177.867 15.4737 178.157 15.791C178.451 16.1083 178.675 16.4933 178.829 16.946C178.987 17.394 179.067 17.8957 179.067 18.451C179.067 19.011 178.987 19.515 178.829 19.963C178.675 20.411 178.451 20.7937 178.157 21.111C177.867 21.4283 177.513 21.6733 177.093 21.846C176.677 22.014 176.211 22.098 175.693 22.098C175.175 22.098 174.706 22.014 174.286 21.846C173.87 21.6733 173.516 21.4283 173.222 21.111C172.928 20.7937 172.701 20.411 172.543 19.963C172.384 19.515 172.305 19.011 172.305 18.451C172.305 17.8957 172.384 17.394 172.543 16.946C172.701 16.4933 172.928 16.1083 173.222 15.791C173.516 15.4737 173.87 15.2287 174.286 15.056C174.706 14.8833 175.175 14.797 175.693 14.797ZM175.693 21.125C176.393 21.125 176.915 20.8917 177.261 20.425C177.606 19.9537 177.779 19.298 177.779 18.458C177.779 17.6133 177.606 16.9553 177.261 16.484C176.915 16.0127 176.393 15.777 175.693 15.777C175.338 15.777 175.03 15.8377 174.769 15.959C174.507 16.0803 174.288 16.2553 174.111 16.484C173.938 16.7127 173.807 16.995 173.719 17.331C173.635 17.6623 173.593 18.038 173.593 18.458C173.593 18.878 173.635 19.2537 173.719 19.585C173.807 19.9163 173.938 20.1963 174.111 20.425C174.288 20.649 174.507 20.8217 174.769 20.943C175.03 21.0643 175.338 21.125 175.693 21.125ZM180.602 22V14.909H181.344C181.521 14.909 181.633 14.9953 181.68 15.168L181.778 15.938C182.086 15.5973 182.429 15.322 182.807 15.112C183.19 14.902 183.631 14.797 184.13 14.797C184.517 14.797 184.858 14.8623 185.152 14.993C185.451 15.119 185.698 15.301 185.894 15.539C186.095 15.7723 186.246 16.0547 186.349 16.386C186.452 16.7173 186.503 17.0837 186.503 17.485V22H185.257V17.485C185.257 16.9483 185.133 16.533 184.886 16.239C184.643 15.9403 184.27 15.791 183.766 15.791C183.397 15.791 183.052 15.8797 182.73 16.057C182.413 16.2343 182.119 16.4747 181.848 16.778V22H180.602ZM188.751 11.444C188.886 11.668 188.984 11.892 189.045 12.116C189.105 12.34 189.136 12.564 189.136 12.788C189.136 13.2127 189.031 13.6187 188.821 14.006C188.615 14.3887 188.328 14.741 187.96 15.063L187.575 14.825C187.537 14.8017 187.512 14.776 187.498 14.748C187.488 14.72 187.484 14.692 187.484 14.664C187.484 14.5987 187.507 14.5427 187.554 14.496C187.628 14.4073 187.701 14.3117 187.771 14.209C187.841 14.1017 187.904 13.992 187.96 13.88C188.016 13.7633 188.06 13.642 188.093 13.516C188.125 13.39 188.142 13.257 188.142 13.117C188.142 12.9677 188.118 12.8137 188.072 12.655C188.03 12.4963 187.955 12.3283 187.848 12.151C187.815 12.0997 187.799 12.0483 187.799 11.997C187.799 11.885 187.862 11.8033 187.988 11.752L188.751 11.444ZM192.991 22.112C192.431 22.112 192 21.9557 191.696 21.643C191.398 21.3303 191.248 20.88 191.248 20.292V15.952H190.394C190.32 15.952 190.257 15.931 190.205 15.889C190.154 15.8423 190.128 15.7723 190.128 15.679V15.182L191.29 15.035L191.577 12.844C191.587 12.774 191.617 12.718 191.668 12.676C191.72 12.6293 191.785 12.606 191.864 12.606H192.494V15.049H194.524V15.952H192.494V20.208C192.494 20.5067 192.567 20.7283 192.711 20.873C192.856 21.0177 193.043 21.09 193.271 21.09C193.402 21.09 193.514 21.0737 193.607 21.041C193.705 21.0037 193.789 20.964 193.859 20.922C193.929 20.88 193.988 20.8427 194.034 20.81C194.086 20.7727 194.13 20.754 194.167 20.754C194.233 20.754 194.291 20.7937 194.342 20.873L194.706 21.468C194.492 21.6687 194.233 21.8273 193.929 21.944C193.626 22.056 193.313 22.112 192.991 22.112ZM198.772 22V11.689H200.018V15.861C200.321 15.539 200.657 15.2823 201.026 15.091C201.395 14.895 201.819 14.797 202.3 14.797C202.687 14.797 203.028 14.8623 203.322 14.993C203.621 15.119 203.868 15.301 204.064 15.539C204.265 15.7723 204.416 16.0547 204.519 16.386C204.622 16.7173 204.673 17.0837 204.673 17.485V22H203.427V17.485C203.427 16.9483 203.303 16.533 203.056 16.239C202.813 15.9403 202.44 15.791 201.936 15.791C201.567 15.791 201.222 15.8797 200.9 16.057C200.583 16.2343 200.289 16.4747 200.018 16.778V22H198.772ZM211.759 22H211.206C211.085 22 210.987 21.9813 210.912 21.944C210.838 21.9067 210.789 21.8273 210.765 21.706L210.625 21.048C210.439 21.216 210.257 21.3677 210.079 21.503C209.902 21.6337 209.715 21.7457 209.519 21.839C209.323 21.9277 209.113 21.9953 208.889 22.042C208.67 22.0887 208.425 22.112 208.154 22.112C207.879 22.112 207.62 22.0747 207.377 22C207.139 21.9207 206.932 21.804 206.754 21.65C206.577 21.496 206.435 21.3023 206.327 21.069C206.225 20.831 206.173 20.551 206.173 20.229C206.173 19.949 206.25 19.6807 206.404 19.424C206.558 19.1627 206.806 18.9317 207.146 18.731C207.492 18.5303 207.942 18.367 208.497 18.241C209.053 18.1103 209.732 18.0357 210.534 18.017V17.464C210.534 16.9133 210.415 16.498 210.177 16.218C209.944 15.9333 209.596 15.791 209.134 15.791C208.831 15.791 208.574 15.8307 208.364 15.91C208.159 15.9847 207.979 16.071 207.825 16.169C207.676 16.2623 207.545 16.3487 207.433 16.428C207.326 16.5027 207.219 16.54 207.111 16.54C207.027 16.54 206.953 16.519 206.887 16.477C206.827 16.4303 206.778 16.3743 206.74 16.309L206.516 15.91C206.908 15.532 207.331 15.2497 207.783 15.063C208.236 14.8763 208.738 14.783 209.288 14.783C209.685 14.783 210.037 14.8483 210.345 14.979C210.653 15.1097 210.912 15.2917 211.122 15.525C211.332 15.7583 211.491 16.0407 211.598 16.372C211.706 16.7033 211.759 17.0673 211.759 17.464V22ZM208.525 21.237C208.745 21.237 208.945 21.216 209.127 21.174C209.309 21.1273 209.48 21.0643 209.638 20.985C209.802 20.901 209.956 20.8007 210.1 20.684C210.25 20.5673 210.394 20.4343 210.534 20.285V18.808C209.96 18.8267 209.473 18.8733 209.071 18.948C208.67 19.018 208.343 19.1113 208.091 19.228C207.839 19.3447 207.655 19.4823 207.538 19.641C207.426 19.7997 207.37 19.977 207.37 20.173C207.37 20.3597 207.401 20.5207 207.461 20.656C207.522 20.7913 207.604 20.9033 207.706 20.992C207.809 21.076 207.93 21.139 208.07 21.181C208.21 21.2183 208.362 21.237 208.525 21.237ZM212.532 14.909H213.554C213.652 14.909 213.734 14.9347 213.799 14.986C213.865 15.0373 213.911 15.098 213.939 15.168L215.738 19.732C215.804 19.9 215.855 20.068 215.892 20.236C215.93 20.404 215.965 20.5697 215.997 20.733C216.035 20.5697 216.074 20.404 216.116 20.236C216.158 20.068 216.212 19.9 216.277 19.732L218.097 15.168C218.125 15.0933 218.17 15.0327 218.23 14.986C218.296 14.9347 218.375 14.909 218.468 14.909H219.441L216.55 22H215.423L212.532 14.909ZM223.222 14.797C223.646 14.797 224.038 14.8693 224.398 15.014C224.757 15.154 225.067 15.3593 225.329 15.63C225.59 15.896 225.793 16.2273 225.938 16.624C226.087 17.016 226.162 17.464 226.162 17.968C226.162 18.164 226.141 18.2947 226.099 18.36C226.057 18.4253 225.977 18.458 225.861 18.458H221.143C221.152 18.906 221.213 19.2957 221.325 19.627C221.437 19.9583 221.591 20.236 221.787 20.46C221.983 20.6793 222.216 20.845 222.487 20.957C222.757 21.0643 223.061 21.118 223.397 21.118C223.709 21.118 223.978 21.083 224.202 21.013C224.43 20.9383 224.626 20.859 224.79 20.775C224.953 20.691 225.088 20.614 225.196 20.544C225.308 20.4693 225.403 20.432 225.483 20.432C225.585 20.432 225.665 20.4717 225.721 20.551L226.071 21.006C225.917 21.1927 225.732 21.356 225.518 21.496C225.303 21.6313 225.072 21.7433 224.825 21.832C224.582 21.9207 224.33 21.986 224.069 22.028C223.807 22.0747 223.548 22.098 223.292 22.098C222.802 22.098 222.349 22.0163 221.934 21.853C221.523 21.685 221.166 21.4423 220.863 21.125C220.564 20.803 220.331 20.4063 220.163 19.935C219.995 19.4637 219.911 18.9223 219.911 18.311C219.911 17.8163 219.985 17.3543 220.135 16.925C220.289 16.4957 220.508 16.1247 220.793 15.812C221.077 15.4947 221.425 15.2473 221.836 15.07C222.246 14.888 222.708 14.797 223.222 14.797ZM223.25 15.714C222.648 15.714 222.174 15.889 221.829 16.239C221.483 16.5843 221.269 17.065 221.185 17.681H225.042C225.042 17.3917 225.002 17.128 224.923 16.89C224.843 16.6473 224.727 16.4397 224.573 16.267C224.419 16.0897 224.23 15.9543 224.006 15.861C223.786 15.763 223.534 15.714 223.25 15.714ZM38.171 42.112C37.611 42.112 37.1793 41.9557 36.876 41.643C36.5773 41.3303 36.428 40.88 36.428 40.292V35.952H35.574C35.4993 35.952 35.4363 35.931 35.385 35.889C35.3337 35.8423 35.308 35.7723 35.308 35.679V35.182L36.47 35.035L36.757 32.844C36.7663 32.774 36.7967 32.718 36.848 32.676C36.8993 32.6293 36.9647 32.606 37.044 32.606H37.674V35.049H39.704V35.952H37.674V40.208C37.674 40.5067 37.7463 40.7283 37.891 40.873C38.0357 41.0177 38.2223 41.09 38.451 41.09C38.5817 41.09 38.6937 41.0737 38.787 41.041C38.885 41.0037 38.969 40.964 39.039 40.922C39.109 40.88 39.1673 40.8427 39.214 40.81C39.2653 40.7727 39.3097 40.754 39.347 40.754C39.4123 40.754 39.4707 40.7937 39.522 40.873L39.886 41.468C39.6713 41.6687 39.4123 41.8273 39.109 41.944C38.8057 42.056 38.493 42.112 38.171 42.112ZM44.1147 34.797C44.6327 34.797 45.0993 34.8833 45.5147 35.056C45.9347 35.2287 46.2893 35.4737 46.5787 35.791C46.8727 36.1083 47.0967 36.4933 47.2507 36.946C47.4093 37.394 47.4887 37.8957 47.4887 38.451C47.4887 39.011 47.4093 39.515 47.2507 39.963C47.0967 40.411 46.8727 40.7937 46.5787 41.111C46.2893 41.4283 45.9347 41.6733 45.5147 41.846C45.0993 42.014 44.6327 42.098 44.1147 42.098C43.5967 42.098 43.1277 42.014 42.7077 41.846C42.2923 41.6733 41.9377 41.4283 41.6437 41.111C41.3497 40.7937 41.1233 40.411 40.9647 39.963C40.806 39.515 40.7267 39.011 40.7267 38.451C40.7267 37.8957 40.806 37.394 40.9647 36.946C41.1233 36.4933 41.3497 36.1083 41.6437 35.791C41.9377 35.4737 42.2923 35.2287 42.7077 35.056C43.1277 34.8833 43.5967 34.797 44.1147 34.797ZM44.1147 41.125C44.8147 41.125 45.3373 40.8917 45.6827 40.425C46.028 39.9537 46.2007 39.298 46.2007 38.458C46.2007 37.6133 46.028 36.9553 45.6827 36.484C45.3373 36.0127 44.8147 35.777 44.1147 35.777C43.76 35.777 43.452 35.8377 43.1907 35.959C42.9293 36.0803 42.71 36.2553 42.5327 36.484C42.36 36.7127 42.2293 36.995 42.1407 37.331C42.0567 37.6623 42.0147 38.038 42.0147 38.458C42.0147 38.878 42.0567 39.2537 42.1407 39.585C42.2293 39.9163 42.36 40.1963 42.5327 40.425C42.71 40.649 42.9293 40.8217 43.1907 40.943C43.452 41.0643 43.76 41.125 44.1147 41.125ZM51.773 42V31.689H53.026V35.931C53.32 35.5903 53.656 35.3173 54.034 35.112C54.4167 34.902 54.853 34.797 55.343 34.797C55.7537 34.797 56.1247 34.874 56.456 35.028C56.7873 35.182 57.0697 35.413 57.303 35.721C57.5363 36.0243 57.716 36.4023 57.842 36.855C57.968 37.303 58.031 37.821 58.031 38.409C58.031 38.9317 57.961 39.4193 57.821 39.872C57.681 40.32 57.478 40.7097 57.212 41.041C56.9507 41.3677 56.6287 41.6267 56.246 41.818C55.868 42.0047 55.441 42.098 54.965 42.098C54.5077 42.098 54.118 42.0093 53.796 41.832C53.4787 41.6547 53.201 41.4073 52.963 41.09L52.9 41.734C52.8627 41.9113 52.7553 42 52.578 42H51.773ZM54.937 35.791C54.531 35.791 54.174 35.8843 53.866 36.071C53.5627 36.2577 53.2827 36.5213 53.026 36.862V40.292C53.25 40.6 53.4973 40.817 53.768 40.943C54.0433 41.069 54.349 41.132 54.685 41.132C55.3477 41.132 55.8563 40.8963 56.211 40.425C56.5657 39.9537 56.743 39.2817 56.743 38.409C56.743 37.947 56.701 37.5503 56.617 37.219C56.5377 36.8877 56.421 36.617 56.267 36.407C56.113 36.1923 55.924 36.036 55.7 35.938C55.476 35.84 55.2217 35.791 54.937 35.791ZM62.3583 34.797C62.783 34.797 63.175 34.8693 63.5343 35.014C63.8936 35.154 64.204 35.3593 64.4653 35.63C64.7266 35.896 64.9296 36.2273 65.0743 36.624C65.2236 37.016 65.2983 37.464 65.2983 37.968C65.2983 38.164 65.2773 38.2947 65.2353 38.36C65.1933 38.4253 65.114 38.458 64.9973 38.458H60.2793C60.2886 38.906 60.3493 39.2957 60.4613 39.627C60.5733 39.9583 60.7273 40.236 60.9233 40.46C61.1193 40.6793 61.3526 40.845 61.6233 40.957C61.894 41.0643 62.1973 41.118 62.5333 41.118C62.846 41.118 63.1143 41.083 63.3383 41.013C63.567 40.9383 63.763 40.859 63.9263 40.775C64.0896 40.691 64.225 40.614 64.3323 40.544C64.4443 40.4693 64.54 40.432 64.6193 40.432C64.722 40.432 64.8013 40.4717 64.8573 40.551L65.2073 41.006C65.0533 41.1927 64.869 41.356 64.6543 41.496C64.4396 41.6313 64.2086 41.7433 63.9613 41.832C63.7186 41.9207 63.4666 41.986 63.2053 42.028C62.944 42.0747 62.685 42.098 62.4283 42.098C61.9383 42.098 61.4856 42.0163 61.0703 41.853C60.6596 41.685 60.3026 41.4423 59.9993 41.125C59.7006 40.803 59.4673 40.4063 59.2993 39.935C59.1313 39.4637 59.0473 38.9223 59.0473 38.311C59.0473 37.8163 59.122 37.3543 59.2713 36.925C59.4253 36.4957 59.6446 36.1247 59.9293 35.812C60.214 35.4947 60.5616 35.2473 60.9723 35.07C61.383 34.888 61.845 34.797 62.3583 34.797ZM62.3863 35.714C61.7843 35.714 61.3106 35.889 60.9653 36.239C60.62 36.5843 60.4053 37.065 60.3213 37.681H64.1783C64.1783 37.3917 64.1386 37.128 64.0593 36.89C63.98 36.6473 63.8633 36.4397 63.7093 36.267C63.5553 36.0897 63.3663 35.9543 63.1423 35.861C62.923 35.763 62.671 35.714 62.3863 35.714ZM71.7491 42.112C71.1891 42.112 70.7575 41.9557 70.4541 41.643C70.1555 41.3303 70.0061 40.88 70.0061 40.292V35.952H69.1521C69.0775 35.952 69.0145 35.931 68.9631 35.889C68.9118 35.8423 68.8861 35.7723 68.8861 35.679V35.182L70.0481 35.035L70.3351 32.844C70.3445 32.774 70.3748 32.718 70.4261 32.676C70.4775 32.6293 70.5428 32.606 70.6221 32.606H71.2521V35.049H73.2821V35.952H71.2521V40.208C71.2521 40.5067 71.3245 40.7283 71.4691 40.873C71.6138 41.0177 71.8005 41.09 72.0291 41.09C72.1598 41.09 72.2718 41.0737 72.3651 41.041C72.4631 41.0037 72.5471 40.964 72.6171 40.922C72.6871 40.88 72.7455 40.8427 72.7921 40.81C72.8435 40.7727 72.8878 40.754 72.9251 40.754C72.9905 40.754 73.0488 40.7937 73.1001 40.873L73.4641 41.468C73.2495 41.6687 72.9905 41.8273 72.6871 41.944C72.3838 42.056 72.0711 42.112 71.7491 42.112ZM75.9008 34.909V39.431C75.9008 39.9677 76.0244 40.383 76.2718 40.677C76.5191 40.971 76.8924 41.118 77.3918 41.118C77.7558 41.118 78.0988 41.0317 78.4208 40.859C78.7428 40.6863 79.0391 40.446 79.3098 40.138V34.909H80.5558V42H79.8138C79.6364 42 79.5244 41.9137 79.4778 41.741L79.3798 40.978C79.0718 41.3187 78.7264 41.594 78.3438 41.804C77.9611 42.0093 77.5224 42.112 77.0278 42.112C76.6404 42.112 76.2974 42.049 75.9988 41.923C75.7048 41.7923 75.4574 41.6103 75.2568 41.377C75.0561 41.1437 74.9044 40.8613 74.8018 40.53C74.7038 40.1987 74.6548 39.8323 74.6548 39.431V34.909H75.9008ZM82.6021 42V34.909H83.3161C83.4514 34.909 83.5447 34.9347 83.5961 34.986C83.6474 35.0373 83.6824 35.126 83.7011 35.252L83.7851 36.358C84.0277 35.8633 84.3264 35.4783 84.6811 35.203C85.0404 34.923 85.4604 34.783 85.9411 34.783C86.1371 34.783 86.3144 34.8063 86.4731 34.853C86.6317 34.895 86.7787 34.9557 86.9141 35.035L86.7531 35.966C86.7204 36.0827 86.6481 36.141 86.5361 36.141C86.4707 36.141 86.3704 36.12 86.2351 36.078C86.0997 36.0313 85.9107 36.008 85.6681 36.008C85.2341 36.008 84.8701 36.134 84.5761 36.386C84.2867 36.638 84.0441 37.0043 83.8481 37.485V42H82.6021ZM88.2486 42V34.909H88.9906C89.1679 34.909 89.2799 34.9953 89.3266 35.168L89.4246 35.938C89.7326 35.5973 90.0756 35.322 90.4536 35.112C90.8362 34.902 91.2772 34.797 91.7766 34.797C92.1639 34.797 92.5046 34.8623 92.7986 34.993C93.0972 35.119 93.3446 35.301 93.5406 35.539C93.7412 35.7723 93.8929 36.0547 93.9956 36.386C94.0982 36.7173 94.1496 37.0837 94.1496 37.485V42H92.9036V37.485C92.9036 36.9483 92.7799 36.533 92.5326 36.239C92.2899 35.9403 91.9166 35.791 91.4126 35.791C91.0439 35.791 90.6986 35.8797 90.3766 36.057C90.0592 36.2343 89.7652 36.4747 89.4946 36.778V42H88.2486ZM98.8349 34.797C99.2595 34.797 99.6515 34.8693 100.011 35.014C100.37 35.154 100.681 35.3593 100.942 35.63C101.203 35.896 101.406 36.2273 101.551 36.624C101.7 37.016 101.775 37.464 101.775 37.968C101.775 38.164 101.754 38.2947 101.712 38.36C101.67 38.4253 101.591 38.458 101.474 38.458H96.7559C96.7652 38.906 96.8259 39.2957 96.9379 39.627C97.0499 39.9583 97.2039 40.236 97.3999 40.46C97.5959 40.6793 97.8292 40.845 98.0999 40.957C98.3705 41.0643 98.6739 41.118 99.0099 41.118C99.3225 41.118 99.5909 41.083 99.8149 41.013C100.044 40.9383 100.24 40.859 100.403 40.775C100.566 40.691 100.702 40.614 100.809 40.544C100.921 40.4693 101.017 40.432 101.096 40.432C101.199 40.432 101.278 40.4717 101.334 40.551L101.684 41.006C101.53 41.1927 101.346 41.356 101.131 41.496C100.916 41.6313 100.685 41.7433 100.438 41.832C100.195 41.9207 99.9432 41.986 99.6819 42.028C99.4205 42.0747 99.1615 42.098 98.9049 42.098C98.4149 42.098 97.9622 42.0163 97.5469 41.853C97.1362 41.685 96.7792 41.4423 96.4759 41.125C96.1772 40.803 95.9439 40.4063 95.7759 39.935C95.6079 39.4637 95.5239 38.9223 95.5239 38.311C95.5239 37.8163 95.5985 37.3543 95.7479 36.925C95.9019 36.4957 96.1212 36.1247 96.4059 35.812C96.6905 35.4947 97.0382 35.2473 97.4489 35.07C97.8595 34.888 98.3215 34.797 98.8349 34.797ZM98.8629 35.714C98.2609 35.714 97.7872 35.889 97.4419 36.239C97.0965 36.5843 96.8819 37.065 96.7979 37.681H100.655C100.655 37.3917 100.615 37.128 100.536 36.89C100.457 36.6473 100.34 36.4397 100.186 36.267C100.032 36.0897 99.8429 35.9543 99.6189 35.861C99.3995 35.763 99.1475 35.714 98.8629 35.714ZM108.361 42C108.183 42 108.071 41.9137 108.025 41.741L107.913 40.88C107.609 41.2487 107.262 41.545 106.87 41.769C106.482 41.9883 106.037 42.098 105.533 42.098C105.127 42.098 104.758 42.021 104.427 41.867C104.095 41.7083 103.813 41.4773 103.58 41.174C103.346 40.8707 103.167 40.4927 103.041 40.04C102.915 39.5873 102.852 39.067 102.852 38.479C102.852 37.9563 102.922 37.471 103.062 37.023C103.202 36.5703 103.402 36.1783 103.664 35.847C103.93 35.5157 104.252 35.2567 104.63 35.07C105.008 34.8787 105.437 34.783 105.918 34.783C106.352 34.783 106.723 34.8577 107.031 35.007C107.339 35.1517 107.614 35.357 107.857 35.623V31.689H109.103V42H108.361ZM105.946 41.09C106.352 41.09 106.706 40.9967 107.01 40.81C107.318 40.6233 107.6 40.3597 107.857 40.019V36.589C107.628 36.281 107.376 36.0663 107.101 35.945C106.83 35.819 106.529 35.756 106.198 35.756C105.535 35.756 105.026 35.9917 104.672 36.463C104.317 36.9343 104.14 37.6063 104.14 38.479C104.14 38.941 104.179 39.3377 104.259 39.669C104.338 39.9957 104.455 40.2663 104.609 40.481C104.763 40.691 104.952 40.845 105.176 40.943C105.4 41.041 105.656 41.09 105.946 41.09ZM116.767 34.797C117.285 34.797 117.752 34.8833 118.167 35.056C118.587 35.2287 118.942 35.4737 119.231 35.791C119.525 36.1083 119.749 36.4933 119.903 36.946C120.062 37.394 120.141 37.8957 120.141 38.451C120.141 39.011 120.062 39.515 119.903 39.963C119.749 40.411 119.525 40.7937 119.231 41.111C118.942 41.4283 118.587 41.6733 118.167 41.846C117.752 42.014 117.285 42.098 116.767 42.098C116.249 42.098 115.78 42.014 115.36 41.846C114.945 41.6733 114.59 41.4283 114.296 41.111C114.002 40.7937 113.776 40.411 113.617 39.963C113.458 39.515 113.379 39.011 113.379 38.451C113.379 37.8957 113.458 37.394 113.617 36.946C113.776 36.4933 114.002 36.1083 114.296 35.791C114.59 35.4737 114.945 35.2287 115.36 35.056C115.78 34.8833 116.249 34.797 116.767 34.797ZM116.767 41.125C117.467 41.125 117.99 40.8917 118.335 40.425C118.68 39.9537 118.853 39.298 118.853 38.458C118.853 37.6133 118.68 36.9553 118.335 36.484C117.99 36.0127 117.467 35.777 116.767 35.777C116.412 35.777 116.104 35.8377 115.843 35.959C115.582 36.0803 115.362 36.2553 115.185 36.484C115.012 36.7127 114.882 36.995 114.793 37.331C114.709 37.6623 114.667 38.038 114.667 38.458C114.667 38.878 114.709 39.2537 114.793 39.585C114.882 39.9163 115.012 40.1963 115.185 40.425C115.362 40.649 115.582 40.8217 115.843 40.943C116.104 41.0643 116.412 41.125 116.767 41.125ZM121.676 42V34.909H122.418C122.596 34.909 122.708 34.9953 122.754 35.168L122.852 35.938C123.16 35.5973 123.503 35.322 123.881 35.112C124.264 34.902 124.705 34.797 125.204 34.797C125.592 34.797 125.932 34.8623 126.226 34.993C126.525 35.119 126.772 35.301 126.968 35.539C127.169 35.7723 127.321 36.0547 127.423 36.386C127.526 36.7173 127.577 37.0837 127.577 37.485V42H126.331V37.485C126.331 36.9483 126.208 36.533 125.96 36.239C125.718 35.9403 125.344 35.791 124.84 35.791C124.472 35.791 124.126 35.8797 123.804 36.057C123.487 36.2343 123.193 36.4747 122.922 36.778V42H121.676ZM129.05 41.23C129.05 41.1087 129.071 40.9943 129.113 40.887C129.159 40.7797 129.22 40.6863 129.295 40.607C129.374 40.5277 129.467 40.4647 129.575 40.418C129.682 40.3713 129.796 40.348 129.918 40.348C130.039 40.348 130.153 40.3713 130.261 40.418C130.368 40.4647 130.461 40.5277 130.541 40.607C130.62 40.6863 130.681 40.7797 130.723 40.887C130.769 40.9943 130.793 41.1087 130.793 41.23C130.793 41.356 130.769 41.4727 130.723 41.58C130.681 41.6827 130.62 41.7737 130.541 41.853C130.461 41.9323 130.368 41.993 130.261 42.035C130.153 42.0817 130.039 42.105 129.918 42.105C129.796 42.105 129.682 42.0817 129.575 42.035C129.467 41.993 129.374 41.9323 129.295 41.853C129.22 41.7737 129.159 41.6827 129.113 41.58C129.071 41.4727 129.05 41.356 129.05 41.23Z" fill="#1A1C1D"/>
</g>
</svg>
